<svg width="10" height="13" viewBox="0 0 10 13" fill="none" xmlns="http://www.w3.org/2000/svg">
<path d="M4.544 0.147999C5.66 0.147999 6.596 0.255999 7.352 0.471999C8.108 0.676 8.672 1.012 9.044 1.48C9.428 1.948 9.62 2.578 9.62 3.37C9.62 3.862 9.536 4.306 9.368 4.702C9.2 5.098 8.954 5.422 8.63 5.674C8.318 5.926 7.928 6.094 7.46 6.178V6.268C7.94 6.352 8.366 6.508 8.738 6.736C9.122 6.952 9.422 7.27 9.638 7.69C9.866 8.098 9.98 8.638 9.98 9.31C9.98 10.09 9.794 10.756 9.422 11.308C9.05 11.86 8.516 12.28 7.82 12.568C7.136 12.856 6.32 13 5.372 13H0.674V0.147999H4.544ZM4.85 5.386C5.762 5.386 6.386 5.242 6.722 4.954C7.07 4.666 7.244 4.24 7.244 3.676C7.244 3.1 7.04 2.686 6.632 2.434C6.224 2.182 5.57 2.056 4.67 2.056H2.978V5.386H4.85ZM2.978 7.24V11.074H5.066C6.002 11.074 6.65 10.894 7.01 10.534C7.382 10.174 7.568 9.694 7.568 9.094C7.568 8.71 7.49 8.38 7.334 8.104C7.178 7.828 6.908 7.618 6.524 7.474C6.14 7.318 5.618 7.24 4.958 7.24H2.978Z" fill="#E9BD3E"/>
</svg>
