<svg width="45" height="42" viewBox="0 0 45 42" fill="none" xmlns="http://www.w3.org/2000/svg">
<path d="M44.086 34.5416C44.076 34.4516 44.016 34.4016 44.016 34.4016L44.086 34.5416Z" fill="#E9BD3E"/>
<path d="M44.246 34.8916C42.286 36.6716 35.756 37.9516 35.006 38.1016H34.966C32.326 38.4516 29.986 38.6216 28.006 38.6216C23.636 38.6216 22.376 37.7816 22.166 37.6116C22.026 37.5016 21.856 37.4016 21.666 37.3016C21.196 37.1616 20.716 37.0116 20.236 36.8316C20.236 36.8316 20.196 36.8116 20.126 36.7916C18.046 36.3016 15.136 36.1516 13.306 36.1516H13.226C4.59595 36.1116 2.01599 35.3416 1.13599 34.7816L1.54596 39.9916L2.776 40.2916L3.57599 39.4316L4.13599 40.4716L5.35596 40.6116L6.03595 39.7416L6.70599 40.7616C7.12599 40.8016 7.54595 40.8316 7.97595 40.8416L8.59595 39.9816L9.22595 40.8616H10.486L11.116 39.9816L11.746 40.8616H12.8459L13.936 38.2716C13.936 38.2716 19.866 38.8216 20.946 39.1716C21.636 39.3616 22.206 39.8916 22.456 40.1516C22.556 40.2516 22.656 40.3516 22.766 40.4316C22.836 40.4816 22.916 40.5516 23.006 40.6116C23.526 41.0116 24.146 41.2616 24.806 41.3416L25.496 40.4116L26.206 41.4316C26.576 41.4516 26.966 41.4616 27.366 41.4616L27.986 40.4516L28.7859 41.4116C29.076 41.3916 29.356 41.3516 29.606 41.3016C29.726 41.2816 29.856 41.2516 29.976 41.2416H30.056L30.556 40.3316L31.256 41.1016L32.506 40.9616L33.066 39.9616L33.836 40.8116C34.006 40.7816 34.1759 40.7516 34.3459 40.7216L35.216 40.5316L35.686 39.4616L36.586 40.2716L37.776 40.0516L38.126 39.0216L39.126 39.7816L40.216 39.5416L40.256 39.5216L40.616 38.3016L41.676 39.0316L42.636 38.7016L42.996 37.4616L43.936 38.1116C44.236 37.8416 44.446 37.4616 44.486 37.0416V36.9516C44.576 36.2516 44.486 35.5416 44.236 34.8916H44.246Z" fill="#E9BD3E"/>
<path d="M8.41596 28.6716C6.07596 26.2016 2.60597 25.7016 1.48597 25.6016C1.24597 28.2416 0.875997 32.9616 1.206 33.7616C1.206 33.7616 0.625955 35.1816 10.726 35.4216C10.786 32.6216 10.006 30.3416 8.41596 28.6616V28.6716Z" fill="#E9BD3E"/>
<path d="M16.586 5.74164V5.61163L16.546 5.6416C16.566 5.6716 16.576 5.71164 16.586 5.74164Z" fill="#E9BD3E"/>
<path d="M20.386 24.3116V24.3716C20.446 24.3916 20.506 24.4116 20.566 24.4416L20.386 24.3216V24.3116Z" fill="#E9BD3E"/>
<path d="M23.446 26.4016L23.396 26.3616C23.396 26.3616 23.416 26.3916 23.416 26.4016H23.446Z" fill="#E9BD3E"/>
<path d="M26.476 28.4716L25.416 27.7416L25.396 28.0316C25.846 28.1216 26.146 28.5116 26.116 29.0716C26.076 29.8116 25.456 30.5616 24.736 30.7416C24.016 30.9216 23.466 30.4716 23.506 29.7316C23.536 29.1716 23.896 28.6216 24.366 28.2916L24.426 27.1816L23.3459 27.4516C23.1159 27.9816 22.6359 28.4316 22.0959 28.5716C21.3759 28.7516 20.826 28.3016 20.866 27.5616C20.906 26.8216 21.526 26.0716 22.246 25.8916C22.386 25.8516 22.516 25.8416 22.636 25.8516L20.766 24.5716C20.976 24.7616 21.086 25.0616 21.046 25.4316C20.976 26.1716 20.3159 26.8916 19.5959 27.0416C18.8659 27.1916 18.336 26.7116 18.416 25.9716C18.476 25.4216 18.8459 24.8716 19.3459 24.5716L19.436 23.6516L19.226 23.5116L18.366 23.6916C18.116 24.2116 17.616 24.6416 17.076 24.7516C16.346 24.9016 15.816 24.4216 15.896 23.6816C15.966 22.9416 16.6259 22.2216 17.3459 22.0716C17.4359 22.0516 17.526 22.0516 17.606 22.0516C17.166 21.4016 16.916 20.6416 16.896 19.8416L16.866 18.3616L16.5359 18.6016C16.7559 19.0116 16.646 19.4916 16.196 19.8216C15.596 20.2616 14.626 20.2616 14.026 19.8216C13.426 19.3816 13.426 18.6716 14.026 18.2316C14.476 17.9016 15.126 17.8216 15.686 17.9816L16.586 17.3216L15.686 16.6616C15.136 16.8216 14.476 16.7416 14.026 16.4116C13.426 15.9716 13.426 15.2616 14.026 14.8216C14.626 14.3816 15.596 14.3816 16.196 14.8216C16.646 15.1516 16.7559 15.6316 16.5359 16.0416L16.816 16.2416L16.726 11.9916L16.546 12.1316C16.766 12.5416 16.656 13.0216 16.206 13.3516C15.606 13.7916 14.636 13.7916 14.0359 13.3516C13.4359 12.9116 13.4359 12.2016 14.0359 11.7616C14.4859 11.4316 15.136 11.3516 15.696 11.5116L16.5959 10.8516L15.696 10.1916C15.146 10.3516 14.4859 10.2716 14.0359 9.94159C13.4359 9.50159 13.4359 8.79162 14.0359 8.35162C14.636 7.91162 15.606 7.91162 16.206 8.35162C16.656 8.68162 16.766 9.16159 16.546 9.57159L16.676 9.67163L16.606 6.37158C16.536 6.56158 16.406 6.7416 16.206 6.8916C15.606 7.3316 14.636 7.3316 14.0359 6.8916C13.4359 6.4516 13.4359 5.74164 14.0359 5.30164C14.4859 4.97164 15.136 4.89164 15.696 5.05164L16.566 4.41162V4.36163L15.696 3.72162C15.146 3.88162 14.4859 3.80162 14.0359 3.47162C13.4359 3.03162 13.4359 2.32159 14.0359 1.88159C14.636 1.44159 15.606 1.44159 16.206 1.88159C16.336 1.98159 16.436 2.0916 16.506 2.2016L16.466 0.191589C12.826 0.711589 5.89594 1.5916 0.905944 1.6416C0.465944 1.6416 0.156001 2.07164 0.276001 2.49164C1.126 5.38164 3.61594 15.1316 1.65594 23.8516C1.65594 23.8516 1.60595 24.3416 1.53595 25.1116C2.72595 25.2116 6.30595 25.7116 8.78595 28.3416C10.476 30.1216 11.296 32.5216 11.236 35.4716C11.856 35.4816 12.506 35.4916 13.206 35.4916C13.206 35.4916 15.076 35.4816 17.206 35.6816L16.956 35.6116C17.006 35.4416 18.226 31.4516 27.126 31.3716V29.7316C27.126 29.2416 26.886 28.7816 26.476 28.5016V28.4716Z" fill="#E9BD3E"/>
<path d="M18.976 4.85162L18.966 3.86163L18.296 4.35162L18.976 4.85162Z" fill="#E9BD3E"/>
<path d="M17.436 3.73161L18.946 2.62157V1.21159C18.916 0.471593 18.256 -0.0884187 17.526 0.0115813C17.356 0.0315813 17.176 0.0615983 16.976 0.0915983L17.046 3.44157L17.436 3.7216V3.73161Z" fill="#E9BD3E"/>
<path d="M19.046 11.3816L19.026 10.2916L18.296 10.8316L19.046 11.3816Z" fill="#E9BD3E"/>
<path d="M17.436 10.2116L18.996 9.07159L19.016 9.09161L18.986 6.11163L17.436 4.98163L17.0959 5.23163L17.196 10.0316L17.436 10.2116Z" fill="#E9BD3E"/>
<path d="M17.436 16.6916L18.996 15.5516L19.086 15.4616L19.056 12.6716L18.996 12.6016L17.436 11.4616L17.236 11.6116L17.3459 16.6216L17.436 16.6916Z" fill="#E9BD3E"/>
<path d="M19.106 17.9116L19.0959 16.7216L18.296 17.3116L19.106 17.9116Z" fill="#E9BD3E"/>
<path d="M20.646 21.7716L20.606 22.2016L21.056 22.1116C20.916 22.0116 20.776 21.9016 20.646 21.7816V21.7716Z" fill="#E9BD3E"/>
<path d="M18.796 22.5716L19.576 22.4116L19.756 20.6516C19.456 20.1316 19.296 19.8016 19.216 19.2016L19.006 19.0716L17.456 17.9316L17.396 17.9816L17.436 19.8316C17.456 20.9016 17.966 21.9116 18.806 22.5716H18.796Z" fill="#E9BD3E"/>
<path d="M24.496 26.1316L24.5959 24.4316C23.7459 23.8816 22.956 23.3616 22.236 22.8916L20.496 23.2516L20.446 23.7216L24.106 26.2316L24.486 26.1316H24.496Z" fill="#E9BD3E"/>
<path d="M25.566 25.0616L25.516 25.8716L26.456 25.6316C26.156 25.4416 25.856 25.2516 25.556 25.0616H25.566Z" fill="#E9BD3E"/>
<path d="M39.336 29.7316C36.816 29.8116 32.836 29.5716 29.746 27.6816C28.956 27.2016 28.456 26.8816 27.646 26.3816L27.326 26.4516L25.456 26.9216V27.1416L26.766 28.0416C27.316 28.4116 27.636 29.0316 27.636 29.7016V31.8616H27.376C19.136 31.8616 17.616 35.2516 17.466 35.6816C19.446 35.8916 21.5959 36.2916 22.5959 37.0816C22.5959 37.0816 24.656 38.7516 34.866 37.4316C34.866 37.4316 42.126 36.0516 43.856 34.3216C43.856 34.3216 43.856 34.2716 43.856 34.1916C43.906 31.6916 41.826 29.6616 39.326 29.7416L39.336 29.7316Z" fill="#E9BD3E"/>
<path d="M18.976 5.34161L17.616 4.35162L18.976 3.36163V3.07159L18.9059 3.02161L17.356 4.16162L16.006 3.17163L16.1559 2.90161C16.3059 2.63161 16.216 2.34159 15.916 2.13159C15.686 1.96159 15.3659 1.87158 15.0359 1.87158C14.7059 1.87158 14.3859 1.97159 14.1559 2.13159C13.9559 2.28159 13.8459 2.46161 13.8459 2.65161C13.8459 2.84161 13.9559 3.02163 14.1559 3.17163C14.3859 3.34163 14.7059 3.43164 15.0359 3.43164C15.1959 3.43164 15.356 3.41163 15.516 3.36163L15.676 3.31158L17.0959 4.35162L15.676 5.3916L15.516 5.34161C15.366 5.30161 15.2059 5.27161 15.0359 5.27161C14.7059 5.27161 14.3859 5.37162 14.1559 5.53162C13.9559 5.68162 13.8459 5.86164 13.8459 6.05164C13.8459 6.24164 13.9559 6.42159 14.1559 6.57159C14.3859 6.74159 14.7059 6.8316 15.0359 6.8316C15.3659 6.8316 15.686 6.73159 15.916 6.57159C16.216 6.35159 16.3059 6.06164 16.1559 5.80164L16.006 5.53162L17.356 4.54163L18.9059 5.68164L18.976 5.63159V5.34161Z" fill="#E9BD3E"/>
<path d="M19.086 11.9016L17.626 10.8316L19.086 9.7616V9.63159L19.046 9.38159L17.356 10.6416L16.006 9.65161L16.1559 9.38159C16.3059 9.11159 16.216 8.82163 15.916 8.61163C15.686 8.44163 15.3659 8.35162 15.0359 8.35162C14.7059 8.35162 14.3859 8.45163 14.1559 8.61163C13.9559 8.76163 13.8459 8.94159 13.8459 9.13159C13.8459 9.32159 13.9559 9.50161 14.1559 9.65161C14.3859 9.82161 14.7059 9.91162 15.0359 9.91162C15.1959 9.91162 15.356 9.89161 15.516 9.84161L15.676 9.79163L17.0959 10.8316L15.676 11.8716L15.516 11.8216C15.366 11.7816 15.2059 11.7516 15.0359 11.7516C14.7059 11.7516 14.3859 11.8516 14.1559 12.0116C13.9559 12.1616 13.8459 12.3416 13.8459 12.5316C13.8459 12.7216 13.9559 12.9016 14.1559 13.0516C14.3859 13.2216 14.7059 13.3116 15.0359 13.3116C15.3659 13.3116 15.686 13.2116 15.916 13.0516C16.216 12.8316 16.3059 12.5416 16.1559 12.2816L16.006 12.0116L17.356 11.0216L19.086 12.2716V11.9016Z" fill="#E9BD3E"/>
<path d="M15.026 19.8016C14.696 19.8016 14.376 19.7016 14.146 19.5416C13.946 19.3916 13.836 19.2116 13.836 19.0216C13.836 18.8316 13.946 18.6516 14.146 18.5016C14.376 18.3316 14.696 18.2416 15.026 18.2416C15.186 18.2416 15.346 18.2616 15.506 18.3116L15.666 18.3616L17.086 17.3216L15.666 16.2816L15.506 16.3316C15.356 16.3716 15.196 16.4016 15.026 16.4016C14.696 16.4016 14.376 16.3016 14.146 16.1416C13.946 15.9916 13.836 15.8116 13.836 15.6216C13.836 15.4316 13.946 15.2516 14.146 15.1016C14.376 14.9316 14.696 14.8416 15.026 14.8416C15.356 14.8416 15.6759 14.9416 15.9059 15.1016C16.2059 15.3216 16.296 15.6116 16.146 15.8716L15.996 16.1416L17.3459 17.1316L19.076 15.8216V16.2616L17.616 17.3316L19.166 18.4716L19.146 18.8616L17.3459 17.5316L15.996 18.5216L16.146 18.7916C16.296 19.0616 16.2059 19.3516 15.9059 19.5616C15.6759 19.7316 15.356 19.8216 15.026 19.8216V19.8016Z" fill="#E9BD3E"/>
<path d="M19.256 26.7216C19.076 26.7216 18.926 26.6616 18.826 26.5516C18.716 26.4216 18.656 26.2316 18.686 26.0116C18.726 25.5816 19.036 25.1216 19.446 24.8716L19.596 24.7816L19.776 23.0316L18.056 23.3916L17.986 23.5416C17.776 23.9816 17.356 24.3316 16.936 24.4216C16.866 24.4316 16.806 24.4416 16.746 24.4416C16.566 24.4416 16.416 24.3816 16.316 24.2716C16.206 24.1416 16.146 23.9516 16.176 23.7316C16.236 23.1416 16.776 22.5416 17.356 22.4216C17.426 22.4116 17.486 22.4016 17.546 22.4016C17.816 22.4016 18.006 22.5316 18.086 22.7616L18.186 23.0516L19.826 22.7116L19.986 20.8216L20.306 21.1716L20.1559 22.6516L21.606 22.3516L21.946 22.6016L20.126 22.9816L19.956 24.6416L20.246 24.7116C20.546 24.7816 20.6959 25.0416 20.6559 25.4116C20.5959 26.0016 20.056 26.6016 19.476 26.7216C19.406 26.7316 19.346 26.7416 19.286 26.7416L19.256 26.7216Z" fill="#E9BD3E"/>
<path d="M24.346 30.4416C24.176 30.4416 24.036 30.3816 23.936 30.2816C23.826 30.1616 23.766 29.9716 23.776 29.7516C23.796 29.3216 24.086 28.8516 24.486 28.5816L24.626 28.4816L24.726 26.7216L23.016 27.1516L22.946 27.3116C22.756 27.7616 22.346 28.1316 21.936 28.2316C21.856 28.2516 21.786 28.2616 21.706 28.2616C21.536 28.2616 21.396 28.2016 21.296 28.1016C21.176 27.9816 21.126 27.7916 21.136 27.5716C21.166 26.9816 21.686 26.3616 22.256 26.2116C22.336 26.1916 22.406 26.1816 22.486 26.1816C22.736 26.1816 22.926 26.3016 23.006 26.5216L23.116 26.8016L24.736 26.3916L24.846 24.4716L25.146 24.7116L25.056 26.3116L26.926 25.8416L27.196 26.1016L25.046 26.6416L24.946 28.3116L25.246 28.3716C25.546 28.4316 25.706 28.6816 25.686 29.0516C25.656 29.6416 25.136 30.2616 24.566 30.4116C24.486 30.4316 24.416 30.4416 24.336 30.4416H24.346Z" fill="#E9BD3E"/>
</svg>
