<svg width="38" height="47" viewBox="0 0 38 47" fill="none" xmlns="http://www.w3.org/2000/svg">
<path d="M37.339 37.38L37.169 36.28L36.479 31.69L36.449 31.5L36.329 30.68L36.169 29.6C36.059 28.89 35.569 28.3 34.889 28.06L25.659 24.8C25.019 24.58 24.549 24.04 24.399 23.38L24.039 21.73H23.979C23.689 22.06 23.389 22.36 23.069 22.64H23.079L23.589 24.73C23.619 24.85 23.569 24.97 23.459 25.03L21.229 26.37H16.8789L14.649 25.03C14.549 24.97 14.499 24.85 14.519 24.73L15.029 22.64H15.039C14.729 22.36 14.4189 22.06 14.1289 21.73H14.069L13.709 23.38C13.569 24.04 13.089 24.58 12.449 24.8L3.21903 28.06C2.53903 28.3 2.049 28.89 1.939 29.6L1.61893 31.69L1.01896 35.67L0.758949 37.38C0.688949 37.82 1.03904 38.22 1.47904 38.22H7.62894L7.17899 31.68C7.13899 31.15 7.329 30.62 7.689 30.23C8.049 29.84 8.56904 29.62 9.09904 29.62H28.949C29.479 29.62 29.999 29.84 30.359 30.23C30.719 30.62 30.9089 31.15 30.8689 31.68L30.419 38.22H36.569C37.019 38.22 37.359 37.82 37.289 37.38H37.339Z" fill="#E9BD3E"/>
<path d="M28.9891 30.34H9.13897C8.42897 30.34 7.869 30.94 7.919 31.64L8.69903 43.02C8.73903 43.66 9.279 44.16 9.919 44.16H28.219C28.859 44.16 29.389 43.66 29.439 43.02L30.219 31.64C30.269 30.93 29.709 30.34 28.999 30.34H28.9891Z" fill="#E9BD3E"/>
<path d="M28.6589 44.82H9.46899C9.15971 44.82 8.90894 45.0707 8.90894 45.38V45.56C8.90894 45.8693 9.15971 46.12 9.46899 46.12H28.6589C28.9682 46.12 29.219 45.8693 29.219 45.56V45.38C29.219 45.0707 28.9682 44.82 28.6589 44.82Z" fill="#E9BD3E"/>
<path d="M27.719 9.27002C27.719 9.27002 27.629 9.27002 27.589 9.27002V8.16998C27.609 7.89998 27.609 7.65003 27.609 7.41003C27.609 6.61003 27.479 5.85001 27.239 5.13L26.9989 4.48999C25.8589 1.85999 23.239 0 20.199 0H17.939C14.899 0 12.2789 1.85999 11.1389 4.48999L11.049 4.71002L10.8989 5.13C10.7089 5.71 10.589 6.32001 10.549 6.95001C8.94895 7.96001 8.41891 9.26002 8.25891 9.83002C7.69891 10.01 7.25891 11.05 7.25891 12.33C7.25891 13.61 7.68901 14.63 8.23901 14.82C8.42901 15.52 9.27896 17.62 12.559 18.37C14.129 20.93 16.4389 22.9 19.0189 22.9C22.6489 22.9 25.7389 19.02 26.9989 15.07C27.8689 15.03 28.2289 13.29 28.3789 12.24C28.3989 12.09 28.419 11.94 28.439 11.79H28.459C28.599 10.62 28.629 9.41001 27.709 9.26001L27.719 9.27002ZM8.71899 14.78C9.21899 14.5 9.599 13.52 9.599 12.34C9.599 11.16 9.23901 10.2 8.73901 9.91003C8.88901 9.42003 9.34895 8.39004 10.549 7.54004L10.5289 9.29004C10.5289 9.29004 10.4489 9.29004 10.4089 9.29004C9.48894 9.44004 9.51894 10.65 9.65894 11.82H9.67896C9.69896 11.97 9.71901 12.12 9.73901 12.27C9.87901 13.28 10.2289 14.96 11.0389 15.09C11.3389 16.02 11.749 16.96 12.229 17.83C9.589 17.1 8.87898 15.43 8.70898 14.79L8.71899 14.78ZM27.739 11.81C27.719 11.94 27.709 12.06 27.689 12.16C27.479 13.69 27.1089 14.32 26.9989 14.38L26.589 14.04L26.439 14.55C25.319 18.35 22.4189 22.2 19.0289 22.2C16.8789 22.2 14.9289 20.64 13.4989 18.54C13.8189 18.58 14.1689 18.61 14.5289 18.62C14.7189 18.97 15.349 19.22 16.109 19.22C17.019 19.22 17.7589 18.85 17.7589 18.4C17.7589 17.95 17.019 17.58 16.109 17.58C15.379 17.58 14.759 17.82 14.549 18.15C14.0389 18.13 13.5789 18.08 13.1489 18.01C12.4889 16.94 11.9689 15.76 11.6189 14.58L11.469 14.22L11.1289 14.37C10.9789 14.27 10.629 13.63 10.429 12.16C10.419 12.06 10.3989 11.94 10.3789 11.81H10.359C10.269 11.06 10.1889 10.03 10.5089 9.97998C10.5689 9.96998 10.629 9.96 10.729 10.06L10.859 10.19V10.82H11.339C11.279 10.67 11.239 10.5 11.239 10.32V10.24L11.319 9.88C11.369 9.65001 11.4389 9.42001 11.5089 9.20001C11.5789 9.00001 11.759 8.79998 11.849 8.60999C12.219 8.51999 12.829 8.35002 13.109 8.15002C13.509 7.85002 14.579 8.15002 14.579 8.15002C14.579 8.15002 15.759 7.99001 16.089 7.82001C16.419 7.65001 17.589 7.95001 17.589 7.95001C17.589 7.95001 18.639 7.92999 18.839 7.73999C19.039 7.53999 20.2889 7.92999 20.2889 7.92999C20.2889 7.92999 21.1889 8.19003 21.9089 7.84003C22.6189 7.48003 23.849 8.32001 23.849 8.32001C23.849 8.32001 24.329 8.40999 24.739 8.17999C25.159 7.94999 25.689 8.67999 25.689 8.67999C25.689 8.67999 25.969 8.95999 26.179 8.92999C26.209 8.92999 26.299 8.66999 26.339 8.60999L26.5089 9.20001C26.5889 9.44001 26.659 9.67999 26.719 9.92999L26.839 10.47C26.819 10.65 26.769 10.81 26.689 10.96H27.209V10.22L27.329 10.08C27.439 9.95002 27.509 9.96003 27.579 9.97003C27.899 10.02 27.819 11.05 27.729 11.8H27.709L27.739 11.81Z" fill="#E9BD3E"/>
</svg>
