<svg width="42" height="42" viewBox="0 0 42 42" fill="none" xmlns="http://www.w3.org/2000/svg">
<path d="M40.4051 16.2476L37.9951 14.4875C37.6451 14.2375 37.3751 13.8875 37.2051 13.4875C33.6951 5.00754 32.9651 4.90759 32.9651 4.90759C27.9551 -0.462413 19.8251 -0.172423 16.8251 0.147577C16.1551 0.217577 15.4851 0.347562 14.8351 0.507562C3.95511 3.31756 1.76511 8.73754 1.76511 8.73754C-0.994893 13.5275 0.195103 22.6575 0.635103 25.4375C0.715102 25.9575 0.775085 26.4776 0.805085 27.0076C0.945085 29.8776 1.46511 31.2575 1.76511 31.8275C1.86511 32.0075 1.95511 32.1976 2.01511 32.3976C2.63511 34.6276 10.8451 32.1676 10.8451 32.1676C11.8951 32.0576 12.8951 31.1376 13.6151 30.2476C14.2151 29.5276 14.6351 28.6876 14.9651 27.8076C15.0551 27.5576 15.1751 27.3075 15.3151 27.0675C16.2351 25.4675 17.8051 24.3576 19.5851 23.9276C29.5851 21.4876 41.0451 17.8275 41.0451 17.8275V17.5476C41.0451 17.0376 40.7951 16.5476 40.3851 16.2476H40.4051Z" fill="#E9BD3E"/>
<path d="M35.2051 29.2976C36.0951 25.9176 36.3351 22.8876 35.2051 20.3776C34.3251 20.6376 33.3751 20.9175 32.3851 21.2075C32.4551 21.3175 32.5151 21.4376 32.5751 21.5576C32.5951 21.5876 32.6051 21.6276 32.6251 21.6676C32.6651 21.7676 32.7051 21.8776 32.7451 21.9976C32.7451 22.0276 32.7651 22.0575 32.7751 22.0875C32.8151 22.2275 32.8551 22.3876 32.8851 22.5376C32.8851 22.5776 32.8952 22.6176 32.9052 22.6476C32.9252 22.7776 32.9451 22.9176 32.9651 23.0576C32.9651 23.1076 32.9751 23.1575 32.9851 23.1975C33.0051 23.3775 33.0151 23.5576 33.0251 23.7576C33.0251 23.7776 33.0251 23.7876 33.0251 23.8076C33.0251 23.9876 33.0251 24.1776 33.0251 24.3676C33.0251 24.4276 33.0251 24.4876 33.0251 24.5476C33.0251 24.7176 33.0051 24.8975 32.9951 25.0875C32.9951 25.1275 32.9951 25.1675 32.9951 25.2075C32.9751 25.4275 32.9551 25.6576 32.9251 25.8976C32.9251 25.9576 32.9052 26.0175 32.9052 26.0775C32.8852 26.2675 32.8551 26.4576 32.8251 26.6576C32.8151 26.7276 32.8051 26.7875 32.7951 26.8575C32.7551 27.1075 32.7052 27.3676 32.6552 27.6276C32.6552 27.6576 32.6451 27.6975 32.6351 27.7275C32.5851 27.9675 32.5352 28.2075 32.4752 28.4475C32.4552 28.5275 32.4352 28.6076 32.4152 28.6776C32.3952 28.7776 32.3651 28.8875 32.3351 28.9875C31.4851 32.2575 28.6551 34.6176 25.2751 34.8776C25.2451 34.8776 25.2052 34.8776 25.1652 34.8876C25.0252 34.8976 24.8752 34.9176 24.7252 34.9276C24.6452 34.9276 24.5651 34.9475 24.4851 34.9575C24.2951 34.9775 24.1052 35.0076 23.9152 35.0376C23.8652 35.0376 23.8251 35.0476 23.7751 35.0576C23.5351 35.0976 23.2851 35.1475 23.0451 35.1975C22.9751 35.2075 22.9051 35.2276 22.8351 35.2476C22.6551 35.2876 22.4752 35.3276 22.2852 35.3776C22.1952 35.3976 22.0951 35.4275 21.9951 35.4575C21.8251 35.5075 21.6551 35.5575 21.4851 35.6075C21.3851 35.6375 21.2751 35.6775 21.1751 35.7075C21.0051 35.7675 20.8352 35.8276 20.6652 35.8876C20.5652 35.9276 20.4552 35.9576 20.3552 35.9976C20.1652 36.0676 19.9752 36.1475 19.7852 36.2275C19.6952 36.2675 19.6051 36.2975 19.5151 36.3375C19.2351 36.4575 18.9452 36.5875 18.6552 36.7275C17.3452 37.3675 16.1451 37.4576 15.0051 36.9976C14.8451 36.9376 14.6951 36.8576 14.5451 36.7776C14.4051 36.6976 14.2651 36.6176 14.1251 36.5276C14.0951 36.5076 14.0551 36.4875 14.0251 36.4575C13.9851 36.4275 13.9451 36.3976 13.8951 36.3676C13.8351 36.3276 13.7751 36.2775 13.7151 36.2375C13.6551 36.1875 13.5951 36.1375 13.5451 36.0975C13.5051 36.0675 13.4651 36.0376 13.4251 35.9976C13.3651 35.9476 13.3151 35.8975 13.2551 35.8475C13.2151 35.8075 13.1751 35.7775 13.1451 35.7375C13.0851 35.6775 13.0251 35.6176 12.9651 35.5576C12.9351 35.5276 12.9051 35.4975 12.8751 35.4675C12.8151 35.4075 12.7651 35.3476 12.7151 35.2876C12.6851 35.2576 12.6551 35.2175 12.6251 35.1875C12.5751 35.1275 12.5252 35.0676 12.4752 35.0076C12.4452 34.9676 12.4151 34.9376 12.3851 34.8976C12.2351 34.7076 12.0951 34.5275 11.9551 34.3375C11.9551 34.3375 11.9451 34.3176 11.9351 34.3076C11.8851 34.2376 11.8352 34.1575 11.7852 34.0875C11.7652 34.0575 11.7451 34.0376 11.7351 34.0076C11.6851 33.9376 11.6452 33.8676 11.5952 33.7976C11.5752 33.7676 11.5551 33.7375 11.5451 33.7075C11.5051 33.6375 11.4552 33.5676 11.4152 33.4976C11.3952 33.4676 11.3851 33.4376 11.3651 33.4176C11.2551 33.2276 11.1451 33.0375 11.0451 32.8575C10.9851 32.8775 10.8851 32.9075 10.7551 32.9375C10.7251 32.9375 10.7051 32.9475 10.6751 32.9575C10.6351 32.9675 10.5851 32.9776 10.5451 32.9976C10.4951 33.0076 10.4451 33.0276 10.3851 33.0376C10.1951 33.0876 9.97511 33.1475 9.73511 33.2075C9.69511 33.2075 9.66513 33.2275 9.63513 33.2375C9.55513 33.2575 9.47513 33.2776 9.38513 33.2976C9.31513 33.3176 9.25512 33.3275 9.18512 33.3475C9.07512 33.3775 8.96515 33.3976 8.84515 33.4276C8.79515 33.4376 8.74513 33.4475 8.69513 33.4575C8.52513 33.4975 8.35511 33.5275 8.17511 33.5675C9.06511 35.3775 10.9651 38.4676 13.9351 39.6676C14.7751 40.0076 15.6251 40.1776 16.4951 40.1776C17.6251 40.1776 18.7751 39.8975 19.9351 39.3275C20.1951 39.1975 20.4551 39.0875 20.7151 38.9775C21.8751 38.4775 22.9551 38.1675 23.9451 37.9675L26.1052 40.2976C27.1052 41.3876 28.5151 41.9775 29.9551 41.9775C30.4951 41.9775 31.0451 41.8975 31.5751 41.7175L31.7451 41.6576L36.0551 38.9675C37.9151 38.2375 37.9751 36.3276 38.0051 35.1776C38.0051 34.9676 38.0152 34.7676 38.0352 34.5576L37.9351 34.1476L35.2751 29.2776L35.2051 29.2976ZM35.1552 36.0176L34.7351 36.3676L30.4651 39.0376C29.6351 39.2476 28.7452 38.9875 28.1652 38.3575L27.6451 37.7876C27.8451 37.8076 28.0452 37.8275 28.2252 37.8575C30.4952 38.1975 32.7151 36.8976 33.5251 34.7576C33.7251 34.2276 33.9152 33.6776 34.1052 33.1276L35.0751 34.8275C35.0751 34.9175 35.1852 35.0175 35.2252 35.0975C35.4752 35.5175 35.2852 35.8676 35.1652 36.0176H35.1552Z" fill="#E9BD3E"/>
</svg>
