<?xml version="1.0" encoding="utf-8"?>
<!-- Generator: Adobe Illustrator 27.9.0, SVG Export Plug-In . SVG Version: 6.00 Build 0)  -->
<svg version="1.1" id="Layer_1" xmlns="http://www.w3.org/2000/svg" xmlns:xlink="http://www.w3.org/1999/xlink" x="0px" y="0px"
	 viewBox="0 0 3738.8 599.7" style="enable-background:new 0 0 3738.8 599.7;" xml:space="preserve">
<style type="text/css">
	.st0{enable-background:new    ;}
	.st1{fill:#FFFFFF;}
</style>
<g class="st0">
	<path class="st1" d="M223,99.2c0-32.1,9-56.1,26.9-72c17.9-15.9,46-23.8,84-23.8h281.4v94H345.3c-6.9,0-12,0.9-15.3,2.8
		c-3.3,1.9-5,4.1-5,6.6l-0.9,26v75.1c0.3,3.8,0.2,7.8-0.2,12c-0.5,4.2-0.3,8.2,0.5,11.8c0.8,3.6,2.7,6.6,5.7,9
		c3,2.4,8.1,3.5,15.3,3.5h270.1v93H334c-38.1,0-66.1-7.9-84-23.8c-17.9-15.9-26.9-39.9-26.9-72V99.2z"/>
	<path class="st1" d="M634.3,92.1c0-24.6,7.2-44.5,21.5-59.7c14.3-15.3,35.3-24.8,63-28.6c7.2-0.6,14.5-1.2,21.7-1.7
		c7.2-0.5,15.8-0.9,25.7-1.2c9.9-0.3,21.6-0.5,35.2-0.7C815,0.1,831.6,0,851.5,0c20.5,0,37.6,0,51.5,0c13.8,0,25.7,0.2,35.4,0.5
		c9.8,0.3,18.2,0.7,25.3,1.2c7.1,0.5,13.9,1.2,20.5,2.1c27.7,3.8,48.6,13.3,62.6,28.6c14,15.3,21,35.2,21,59.7v154.9
		c0,14.2-1.7,26.1-5.2,35.9c-3.5,9.8-9.8,18.7-18.9,26.9h0.5c-7.6,7.6-16.1,13.4-25.5,17.5c-9.4,4.1-21.4,7.1-35.9,9
		c-14.5,1.9-32.3,3-53.4,3.3c-21.1,0.3-47.2,0.5-78.4,0.5c-19.5,0-36-0.1-49.6-0.2c-13.5-0.2-25.3-0.3-35.4-0.5
		c-10.1-0.2-18.8-0.6-26.2-1.2c-7.4-0.6-14.6-1.4-21.5-2.4c-14.2-1.9-25.7-4.8-34.7-8.7c-9-3.9-17.4-9.7-25.3-17.2h0.5
		c-9.1-8.2-15.5-17.2-19.1-26.9c-3.6-9.8-5.4-21.7-5.4-35.9V92.1z M740.5,234.2c0,3.8,1.4,6.4,4.2,7.8c2.8,1.4,8.3,2.1,16.5,2.1
		h179.9c15.1,0,22.7-3.3,22.7-9.9V105.8c0-4.4-1.5-7.4-4.5-9c-3-1.6-8.6-2.4-16.8-2.4H761.3c-7.9,0-13.3,1-16.3,3.1
		c-3,2.1-4.5,4.8-4.5,8.3V234.2z"/>
	<path class="st1" d="M1481.3,337.1V128.9l-103.9,208.2H1301l-105.3-205.4v205.4h-109.1V3.3h168.6l83.1,176.6
		c14.2-29.6,28.3-59.3,42.5-89c14.2-29.7,27.9-58.9,41.1-87.6h167.6v333.8H1481.3z"/>
	<path class="st1" d="M1896.8,3.3c15.1,0,29.7,1,43.9,3.1c14.2,2.1,26.6,6.1,37.3,12.3c10.7,6.1,19.3,15.1,25.7,26.9
		c6.4,11.8,9.7,27.3,9.7,46.5c0,20.5-3.2,36.3-9.7,47.5c-6.5,11.2-13.6,19.6-21.5,25.3c5.7,1.9,11,4.5,16.1,7.8
		c5,3.3,9.5,7.9,13.5,13.7c3.9,5.8,7.1,13.1,9.4,21.7c2.4,8.7,3.5,19.3,3.5,31.9c0,21.7-3.2,39.1-9.4,52.2
		c-6.3,13.1-15.6,23.1-27.9,30v-0.5c-11.3,6.3-24.1,10.5-38.2,12.5c-14.2,2.1-31.6,3.1-52.4,3.1h-288.5V3.3H1896.8z M1719.3,128.4
		h163.8c5,0,9.4-1.7,13-5.2c3.6-3.5,5.4-8.3,5.4-14.6c0-5.3-1.7-9.7-5-13c-3.3-3.3-7.3-5-12-5h-165.3V128.4z M1720.7,246.9h172.3
		c5.3,0,9.7-1.5,13-4.5c3.3-3,5-8.1,5-15.3c0-5.3-1.7-9.8-5-13.2c-3.3-3.5-7.6-5.2-13-5.2h-172.3V246.9z"/>
	<path class="st1" d="M2158.9,3.3v333.8h-115.2V3.3H2158.9z"/>
	<path class="st1" d="M2287.8,112.4v224.7h-110V3.3h173.8l180.8,222.4V3.3h109.5v333.8h-172.8L2287.8,112.4z"/>
	<path class="st1" d="M3025.8,246.9v90.2h-365V3.3h365V93H2776v117.6v36.4H3025.8z M2796.8,130.8H2970v79.8h-173.3V130.8z"/>
	<path class="st1" d="M3044.6,3.3h317.8c38.1,0,66.2,7.9,84.3,23.6c18.1,15.7,27.1,39.4,27.1,70.8v144.5c0,31.5-9.1,55.2-27.1,71.1
		c-18.1,15.9-46.2,23.8-84.3,23.8h-317.8V3.3z M3145.2,246l8,8v-8H3145.2z M3153.2,246h198.3c13.2,0,19.8-3.5,19.8-10.4V105.8
		c0-6.6-6.6-9.9-19.8-9.9h-198.3V246z"/>
</g>
<g>
	<g>
		<g>
			<g>
				<path class="st1" d="M851.4,594.6h-24.9V480.9h24.9V594.6z"/>
			</g>
			<g>
				<path class="st1" d="M1121.3,480.9v99.8c0,3.5-0.9,6.5-2.7,9c-1.8,2.6-4,4.5-6.7,5.8s-5.6,1.9-8.8,1.7c-3.2-0.2-6.1-1.4-8.7-3.6
					l-101.5-82v83h-24.7v-99.8c0-3.5,0.9-6.5,2.7-9.1s4-4.6,6.7-5.8c2.7-1.2,5.6-1.8,8.7-1.6c3.1,0.2,6,1.4,8.6,3.6l101.7,81.8
					v-82.8H1121.3z"/>
			</g>
			<g>
				<path class="st1" d="M1263.1,594.6h-24.9V480.9h24.9V594.6z"/>
			</g>
			<g>
				<path class="st1" d="M1379.7,480.9h147.4v24.9h-60v88.8h-27.4v-88.8h-60V480.9z"/>
			</g>
			<g>
				<path class="st1" d="M1665.8,594.6h-24.9V480.9h24.9V594.6z"/>
			</g>
			<g>
				<path class="st1" d="M1823.3,480.3h79.3c5.7,0,11,1.1,16,3.2s9.3,5.1,13,8.8c3.7,3.7,6.6,8.1,8.7,13.1c2.1,5,3.2,10.3,3.2,16
					v73.3h-24.9v-27.4h-111.3v27.4h-24.9v-73.3c0-5.7,1.1-11,3.2-16c2.1-5,5-9.3,8.7-13.1c3.7-3.7,8-6.7,13-8.8
					C1812.3,481.3,1817.6,480.3,1823.3,480.3z M1807.3,542.1h111.3v-20.8c0-4.4-1.6-8.2-4.7-11.3c-3.1-3.1-6.9-4.7-11.3-4.7h-79.3
					c-4.4,0-8.2,1.6-11.3,4.7c-3.1,3.1-4.7,6.9-4.7,11.3V542.1z"/>
			</g>
			<g>
				<path class="st1" d="M2059.5,480.9h147.4v24.9h-60v88.8h-27.4v-88.8h-60V480.9z"/>
			</g>
			<g>
				<path class="st1" d="M2345.6,594.6h-24.9V480.9h24.9V594.6z"/>
			</g>
			<g>
				<path class="st1" d="M2490.5,480.9l50.4,89.9c1.7,2.8,4.1,4.2,7.3,4.3s5.6-1.3,7.3-4.3l50.4-89.9h28.2l-57.3,101.9
					c-3.2,5.7-7.4,9.9-12.6,12.7c-5.2,2.8-10.6,4.2-16.2,4.2s-11-1.4-16.2-4.2c-5.2-2.8-9.3-7-12.4-12.7l-57.2-101.9H2490.5z"/>
			</g>
			<g>
				<path class="st1" d="M2912.2,569.7v24.9h-127.9c-5.7,0-11-1.1-16-3.2s-9.3-5.1-13-8.7c-3.7-3.7-6.6-8-8.7-13s-3.2-10.3-3.2-16
					v-32c0-5.7,1.1-11,3.2-16s5-9.3,8.7-13.1c3.7-3.7,8-6.7,13-8.8c5-2.1,10.3-3.2,16-3.2l127.9,0.2v24.9h-127.9
					c-4.4,0-8.2,1.6-11.3,4.7c-3.1,3.1-4.7,6.9-4.7,11.3v3.3h136.2v25.1h-136.2v3.5c0,4.4,1.6,8.2,4.7,11.3
					c3.1,3.1,6.9,4.7,11.3,4.7h127.9L2912.2,569.7L2912.2,569.7z"/>
			</g>
		</g>
		<g>
			<g>
				<ellipse class="st1" cx="324.3" cy="538.9" rx="324.3" ry="6.7"/>
			</g>
			<g>
				<ellipse class="st1" cx="3414.5" cy="538.9" rx="324.3" ry="6.7"/>
			</g>
		</g>
	</g>
</g>
</svg>