<svg width="51" height="42" viewBox="0 0 51 42" fill="none" xmlns="http://www.w3.org/2000/svg">
<path d="M0 8.36255V41.9933H50.5229V8.36255H0ZM24.079 25.2701L1.38209 39.997V10.3589L24.079 25.2701ZM2.96381 9.74463H48.0198L25.3382 24.4562L2.96381 9.74463ZM25.3382 26.0993L47.4056 40.6112H2.97916L25.3382 26.0993ZM26.5975 25.2854L49.1408 10.666V40.1045L26.5975 25.2854Z" fill="white"/>
<path d="M25.262 4.75368C26.5341 4.75368 27.5654 3.72238 27.5654 2.4502C27.5654 1.17803 26.5341 0.146729 25.262 0.146729C23.9898 0.146729 22.9585 1.17803 22.9585 2.4502C22.9585 3.72238 23.9898 4.75368 25.262 4.75368Z" fill="white"/>
<path d="M15.5872 4.75368C16.8593 4.75368 17.8906 3.72238 17.8906 2.4502C17.8906 1.17803 16.8593 0.146729 15.5872 0.146729C14.315 0.146729 13.2837 1.17803 13.2837 2.4502C13.2837 3.72238 14.315 4.75368 15.5872 4.75368Z" fill="white"/>
<path d="M34.9363 4.60012C36.2085 4.60012 37.2398 3.56881 37.2398 2.29664C37.2398 1.02447 36.2085 -0.00683594 34.9363 -0.00683594C33.6641 -0.00683594 32.6328 1.02447 32.6328 2.29664C32.6328 3.56881 33.6641 4.60012 34.9363 4.60012Z" fill="white"/>
</svg>
