<svg width="36" height="22" viewBox="0 0 36 22" fill="none" xmlns="http://www.w3.org/2000/svg">
<path d="M0 4.43799V21.5979H36V4.43799H0ZM17.1574 13.0649L0.984802 20.5792V5.45661L17.1574 13.0649ZM2.11185 5.14319H34.2164L18.0547 12.6497L2.11185 5.14319ZM18.0547 13.4881L33.7787 20.8927H2.1228L18.0547 13.4881ZM18.952 13.0728L35.0152 5.61332V20.6341L18.952 13.0728Z" fill="#E9BD3E"/>
<path d="M18 2.29318C19.1046 2.29318 20 1.81301 20 1.22069C20 0.628364 19.1046 0.148193 18 0.148193C16.8954 0.148193 16 0.628364 16 1.22069C16 1.81301 16.8954 2.29318 18 2.29318Z" fill="#E9BD3E"/>
</svg>
