<svg width="60" height="33" viewBox="0 0 60 33" fill="none" xmlns="http://www.w3.org/2000/svg">
<path d="M40.1969 10.5358C40.2726 10.5232 40.3609 10.498 40.4493 10.4853C40.4619 10.6115 40.4745 10.7251 40.4997 10.8513C40.588 11.5327 40.8278 12.6557 41.383 12.744C42.2284 15.3939 44.3105 18.0185 46.7584 18.0185C49.2064 18.0185 51.2758 15.4065 52.1338 12.7567C52.7143 12.7314 52.9666 11.5579 53.0549 10.8513C53.0676 10.7377 53.0928 10.6115 53.1054 10.4853C53.1937 10.498 53.282 10.5232 53.3578 10.5358C53.5975 10.5863 53.8246 10.4096 53.8246 10.1573V8.25192C53.8246 8.05002 53.6606 7.87334 53.4461 7.87334H53.3704C53.4082 7.58312 53.4335 7.2803 53.4335 6.97746C53.4335 3.29292 51.6291 0.315002 46.771 0.315002C41.6102 0.315002 40.1086 3.29292 40.1086 6.97746C40.1086 7.2803 40.1338 7.58312 40.1716 7.87334H40.0959C39.894 7.87334 39.7174 8.03741 39.7174 8.25192V10.1573C39.7174 10.397 39.9445 10.5863 40.1843 10.5358H40.1969ZM46.7836 10.132C49.1937 10.132 51.3262 10.2456 52.6385 10.4223C52.6259 10.5611 52.6007 10.6872 52.5881 10.7882C52.4493 11.8229 52.1969 12.2393 52.1212 12.2772L51.8435 12.05L51.7427 12.3907C50.9856 14.9522 49.0297 17.539 46.7584 17.539C44.4871 17.539 42.5313 14.9648 41.7742 12.4159L41.6732 12.1762L41.4461 12.2772C41.3451 12.2141 41.1054 11.785 40.9666 10.7882C40.954 10.6872 40.9414 10.5611 40.9161 10.4223C42.2284 10.2456 44.361 10.132 46.771 10.132H46.7836Z" fill="#E9BD3E"/>
<path d="M6.69535 10.5358C6.77106 10.5232 6.85941 10.498 6.94773 10.4853C6.96035 10.6115 6.97294 10.7251 6.99818 10.8513C7.08651 11.5327 7.32627 12.6557 7.88147 12.744C8.7269 15.3939 10.8089 18.0185 13.2569 18.0185C15.7048 18.0185 17.7742 15.4065 18.6322 12.7567C19.2126 12.7314 19.4651 11.5579 19.5534 10.8513C19.566 10.7377 19.5912 10.6115 19.6038 10.4853C19.6922 10.498 19.7805 10.5232 19.8562 10.5358C20.096 10.5863 20.3231 10.4096 20.3231 10.1573V8.25192C20.3231 8.05002 20.1591 7.87334 19.9446 7.87334H19.8688C19.9067 7.58312 19.9319 7.2803 19.9319 6.97746C19.9319 3.29292 18.1275 0.315002 13.2694 0.315002C8.10855 0.315002 6.60701 3.29292 6.60701 6.97746C6.60701 7.2803 6.63224 7.58312 6.67009 7.87334H6.59438C6.39249 7.87334 6.21585 8.03741 6.21585 8.25192V10.1573C6.21585 10.397 6.44297 10.5863 6.68272 10.5358H6.69535ZM13.2821 10.132C15.6922 10.132 17.8247 10.2456 19.137 10.4223C19.1243 10.5611 19.0991 10.6872 19.0865 10.7882C18.9477 11.8229 18.6954 12.2393 18.6197 12.2772L18.342 12.05L18.241 12.3907C17.4839 14.9522 15.5282 17.539 13.2569 17.539C10.9856 17.539 9.02974 14.9648 8.27264 12.4159L8.17167 12.1762L7.94455 12.2772C7.8436 12.2141 7.60385 11.785 7.46505 10.7882C7.45243 10.6872 7.43984 10.5611 7.4146 10.4223C8.72691 10.2456 10.8593 10.132 13.2694 10.132H13.2821Z" fill="#E9BD3E"/>
<path d="M58.9603 27.0279L58.4808 23.886V23.8102L58.3924 23.255L58.2789 22.5358C58.2032 22.0563 57.8751 21.6525 57.4209 21.5011L51.2 19.3055C50.771 19.1541 50.4555 18.7882 50.3546 18.3465L50.1148 17.2361H50.077C49.8878 17.4633 49.6732 17.6651 49.4713 17.8544L49.812 19.2677C49.8373 19.3434 49.7994 19.4317 49.7237 19.4696L48.2221 20.3655H45.2947L43.7931 19.4696C43.7174 19.4317 43.6922 19.3434 43.7048 19.2677L44.0455 17.8544C43.8309 17.6651 43.6291 17.4633 43.4398 17.2488H43.4019L43.1622 18.3591C43.0612 18.8008 42.7458 19.1667 42.3168 19.3181L36.0959 21.5137C35.8057 21.6147 35.5786 21.8166 35.4271 22.0689L42.0013 24.3907C42.6701 24.6305 43.1495 25.2109 43.2505 25.9049L43.6165 28.3528H58.5565C58.8593 28.3528 59.0865 28.0878 59.0486 27.785L58.935 27.0405L58.9603 27.0279Z" fill="#E9BD3E"/>
<path d="M43.6416 30.8639L43.1243 27.4065V27.3181H43.1117L43.0233 26.7125L42.8972 25.9175C42.8215 25.3876 42.4555 24.9459 41.9508 24.7693L35.1116 22.3592C34.6448 22.1951 34.2915 21.7913 34.1779 21.2992L33.913 20.0752H33.8751C33.6606 20.315 33.4335 20.5421 33.2064 20.7566L33.5849 22.3087C33.6101 22.397 33.5723 22.4854 33.4965 22.5358L31.8436 23.5326H28.6133L26.9603 22.5358C26.8846 22.4854 26.8467 22.397 26.8719 22.3087L27.2505 20.7566C27.0233 20.5548 26.7963 20.3276 26.5817 20.0879H26.5439L26.2788 21.3119C26.1779 21.804 25.8246 22.1951 25.3451 22.3718L18.506 24.7819C18.0013 24.9585 17.6354 25.4001 17.5596 25.9301L17.3199 27.4822L17.2189 28.1383V28.2014L17.0423 29.2866L16.9792 29.7156L16.8657 30.4349L16.6763 31.6967C16.6259 32.0248 16.8782 32.315 17.2189 32.315H43.2253C43.5534 32.315 43.8057 32.0248 43.7679 31.6967L43.6416 30.8765V30.8639Z" fill="#E9BD3E"/>
<path d="M22.9729 12.7188C23.0612 12.7062 23.1622 12.6809 23.2632 12.6683C23.2758 12.8071 23.301 12.9333 23.3136 13.0595C23.4146 13.8166 23.6796 15.0532 24.2852 15.1415C25.219 18.0563 27.5155 20.9459 30.2032 20.9459C32.8909 20.9459 35.1875 18.0689 36.1212 15.1541C36.7647 15.1289 37.0297 13.8292 37.1433 13.0595C37.1559 12.9333 37.1811 12.7945 37.1937 12.6683C37.2947 12.6809 37.3956 12.7062 37.4839 12.7188C37.7489 12.7693 37.9887 12.5674 37.9887 12.3024V10.2077C37.9887 9.98061 37.7994 9.79135 37.5723 9.79135H37.4966C37.547 9.46327 37.5723 9.13519 37.5723 8.7945C37.5723 4.74402 35.5912 1.46327 30.241 1.46327C24.5628 1.46327 22.9098 4.74402 22.9098 8.7945C22.9098 9.13519 22.9351 9.46327 22.9855 9.79135H22.9098C22.6827 9.79135 22.4934 9.98061 22.4934 10.2077V12.3024C22.4934 12.5674 22.7332 12.7693 22.9982 12.7188H22.9729ZM30.2159 12.2772C32.8657 12.2772 35.2127 12.4033 36.6512 12.5926C36.6385 12.744 36.6133 12.8828 36.6007 12.9964C36.4493 14.132 36.1717 14.5989 36.0959 14.6368L35.7931 14.3844L35.6795 14.763C34.8467 17.5768 32.7016 20.4286 30.1906 20.4286C27.6796 20.4286 25.547 17.5894 24.7142 14.7882L24.6007 14.5232L24.3483 14.6368C24.2348 14.5611 23.9698 14.0942 23.831 12.9964C23.8184 12.8828 23.7931 12.744 23.7805 12.5926C25.2316 12.4033 27.566 12.2772 30.2159 12.2772Z" fill="#E9BD3E"/>
<path d="M17.0171 25.8797C17.118 25.1857 17.5975 24.6052 18.2663 24.3655L24.6511 22.1194C24.4997 21.8292 24.2473 21.6021 23.9319 21.4885L17.7111 19.2929C17.282 19.1415 16.9666 18.7756 16.8657 18.3339L16.6259 17.2235H16.588C16.3987 17.4506 16.1842 17.6526 15.9824 17.8418L16.3231 19.2551C16.3483 19.3308 16.3104 19.4191 16.2347 19.457L14.7332 20.3529H11.8057L10.3041 19.457C10.2284 19.4191 10.2032 19.3308 10.2158 19.2551L10.5565 17.8418C10.342 17.6526 10.1401 17.4506 9.95085 17.2361H9.91296L9.67321 18.3465C9.57227 18.7882 9.25683 19.1541 8.82781 19.3055L2.607 21.5011C2.15274 21.6652 1.82468 22.0563 1.74897 22.5358L1.5344 23.9364L1.44606 24.5295V24.58L1.29465 25.5642L1.23157 25.9554L1.13061 26.6115L0.954008 27.7598C0.903535 28.0626 1.14322 28.3276 1.44606 28.3276H16.6259L16.9918 25.8797H17.0171Z" fill="#E9BD3E"/>
</svg>
