<svg width="40" height="52" viewBox="0 0 40 52" fill="none" xmlns="http://www.w3.org/2000/svg">
<path d="M39.0494 20.37V18.05C39.0494 17.15 36.9494 16.35 33.7294 15.86C35.7994 17.29 37.7194 18.84 39.0494 20.36V20.37Z" fill="#E9BD3E"/>
<path d="M31.0693 41.48L31.6094 44.8301L29.6793 43.8L25.2894 51.14C25.6794 51.14 26.0794 51.15 26.4894 51.15C33.4294 51.15 39.0593 49.9501 39.0593 48.4701V28.13L31.0693 41.48Z" fill="#E9BD3E"/>
<path d="M28.9294 15.62V19.76C28.9294 20.3 28.7494 20.8 28.4494 21.2C28.3894 21.39 28.3094 21.58 28.1994 21.76C27.4594 22.99 25.8594 23.4 24.6294 22.66C23.3994 21.92 22.9894 20.3201 23.7294 19.0901C23.8194 18.9301 23.9294 18.79 24.0494 18.66V13C20.1094 11.15 17.0494 10.4099 16.4894 11.3499L0.589386 37.92C-0.180614 39.21 4.1094 43.2 10.1694 46.83C16.2294 50.46 21.7694 52.35 22.5494 51.06L38.4494 24.49C39.2194 23.2 34.9594 19.24 28.9294 15.62ZM20.1594 38.41L17.9494 43.9799L14.8694 38.8401L8.88937 38.46L12.8294 33.95L11.3494 28.15L16.8594 30.5L21.9194 27.29L21.3894 33.26L25.9994 37.08L20.1594 38.42V38.41Z" fill="#E9BD3E"/>
<path d="M26.2094 0H26.7593C27.7393 0 28.5294 0.79002 28.5294 1.77002V20.04C28.5294 21.01 27.7393 21.8101 26.7593 21.8101H26.2094C25.2294 21.8101 24.4393 21.02 24.4393 20.04V1.77002C24.4393 0.79002 25.2294 0 26.2094 0Z" fill="#E9BD3E"/>
</svg>
