<svg width="21" height="48" viewBox="0 0 21 48" fill="none" xmlns="http://www.w3.org/2000/svg">
<path d="M17.4 18.22L16.96 14.02C16.96 14.02 16.97 14 16.97 13.99C16.97 13.7 16.14 13.46 15.12 13.46C14.1 13.46 13.27 13.7 13.27 13.99C13.27 14 13.27 14.01 13.28 14.02L12.95 17.2H8.46999L8.01999 0.559998C8.01999 0.559998 8.02998 0.540029 8.02998 0.530029C8.02998 0.240029 7.10999 0 5.96999 0C4.82999 0 3.90999 0.240029 3.90999 0.530029C3.90999 0.540029 3.91998 0.549998 3.91998 0.559998L3.43999 18.31C1.78999 19.44 0.709991 21.34 0.709991 23.5V41.08C0.709991 44.55 3.52998 47.37 6.99998 47.37H14C17.47 47.37 20.29 44.55 20.29 41.08V23.5C20.29 21.29 19.15 19.34 17.42 18.22H17.4ZM5.12999 43.3H3.66998C2.75998 43.3 2.01999 42.56 2.01999 41.65V40.19C2.01999 39.28 2.75998 38.54 3.66998 38.54H5.12999C6.03999 38.54 6.77998 39.28 6.77998 40.19V41.65C6.77998 42.56 6.03999 43.3 5.12999 43.3ZM5.12999 37.64H3.66998C2.75998 37.64 2.01999 36.9 2.01999 35.99V34.53C2.01999 33.62 2.75998 32.88 3.66998 32.88H5.12999C6.03999 32.88 6.77998 33.62 6.77998 34.53V35.99C6.77998 36.9 6.03999 37.64 5.12999 37.64ZM11.22 43.3H9.75999C8.84999 43.3 8.10999 42.56 8.10999 41.65V40.19C8.10999 39.28 8.84999 38.54 9.75999 38.54H11.22C12.13 38.54 12.87 39.28 12.87 40.19V41.65C12.87 42.56 12.13 43.3 11.22 43.3ZM11.22 37.64H9.75999C8.84999 37.64 8.10999 36.9 8.10999 35.99V34.53C8.10999 33.62 8.84999 32.88 9.75999 32.88H11.22C12.13 32.88 12.87 33.62 12.87 34.53V35.99C12.87 36.9 12.13 37.64 11.22 37.64ZM2.63998 26.31V24.81C2.63998 22.15 4.79999 19.99 7.45999 19.99H13.52C16.18 19.99 18.34 22.15 18.34 24.81V26.31C18.34 28.97 16.18 31.13 13.52 31.13H7.45999C4.79999 31.13 2.63998 28.97 2.63998 26.31ZM17.31 43.3H15.85C14.94 43.3 14.2 42.56 14.2 41.65V40.19C14.2 39.28 14.94 38.54 15.85 38.54H17.31C18.22 38.54 18.96 39.28 18.96 40.19V41.65C18.96 42.56 18.22 43.3 17.31 43.3ZM17.31 37.64H15.85C14.94 37.64 14.2 36.9 14.2 35.99V34.53C14.2 33.62 14.94 32.88 15.85 32.88H17.31C18.22 32.88 18.96 33.62 18.96 34.53V35.99C18.96 36.9 18.22 37.64 17.31 37.64Z" fill="#E9BD3E"/>
</svg>
